{
	"asset":{
		"generator":"Khronos glTF Blender I/O v5.2.40",
		"version":"2.0"
	},
	"extensionsUsed":[
		"KHR_materials_emissive_strength",
		"KHR_materials_specular",
		"KHR_materials_ior",
		"KHR_texture_transform"
	],
	"extensionsRequired":[
		"KHR_texture_transform"
	],
	"scene":0,
	"scenes":[
		{
			"name":"Scene",
			"nodes":[
				0
			]
		}
	],
	"nodes":[
		{
			"mesh":0,
			"name":"spec_chum_room_static_baked"
		}
	],
	"materials":[
		{
			"doubleSided":true,
			"name":"carpet",
			"normalTexture":{
				"index":0
			},
			"pbrMetallicRoughness":{
				"baseColorTexture":{
					"index":1
				},
				"metallicRoughnessTexture":{
					"index":2
				}
			}
		},
		{
			"doubleSided":true,
			"name":"plaster",
			"normalTexture":{
				"index":3
			},
			"pbrMetallicRoughness":{
				"baseColorTexture":{
					"index":4
				},
				"metallicRoughnessTexture":{
					"index":5
				}
			}
		},
		{
			"doubleSided":true,
			"name":"curtain",
			"normalTexture":{
				"index":6
			},
			"pbrMetallicRoughness":{
				"baseColorTexture":{
					"index":7
				},
				"metallicRoughnessTexture":{
					"index":8
				}
			}
		},
		{
			"doubleSided":true,
			"extensions":{
				"KHR_materials_specular":{
					"specularColorFactor":[
						0.0,
						0.0,
						0.0
					]
				},
				"KHR_materials_ior":{
					"ior":1.4500000476837158
				}
			},
			"name":"dirty_football",
			"normalTexture":{
				"index":9
			},
			"pbrMetallicRoughness":{
				"baseColorTexture":{
					"index":10
				},
				"metallicFactor":0,
				"metallicRoughnessTexture":{
					"index":11
				}
			}
		},
		{
			"doubleSided":true,
			"name":"industrial_wall_sconce",
			"normalTexture":{
				"index":12
			},
			"pbrMetallicRoughness":{
				"baseColorTexture":{
					"index":13
				},
				"metallicRoughnessTexture":{
					"index":14
				}
			}
		},
		{
			"doubleSided":true,
			"emissiveFactor":[
				1,
				0.5799999833106995,
				0.23999999463558197
			],
			"extensions":{
				"KHR_materials_emissive_strength":{
					"emissiveStrength":1.5
				}
			},
			"name":"industrial_wall_sconce_bulb",
			"pbrMetallicRoughness":{
				"baseColorTexture":{
					"index":15
				},
				"metallicFactor":0,
				"metallicRoughnessTexture":{
					"index":16
				}
			}
		},
		{
			"doubleSided":true,
			"name":"industrial_wall_sconce.001",
			"normalTexture":{
				"index":17
			},
			"pbrMetallicRoughness":{
				"baseColorTexture":{
					"index":18
				},
				"metallicRoughnessTexture":{
					"index":19
				}
			}
		},
		{
			"doubleSided":true,
			"emissiveFactor":[
				1,
				0.5799999833106995,
				0.23999999463558197
			],
			"extensions":{
				"KHR_materials_emissive_strength":{
					"emissiveStrength":1.5
				}
			},
			"name":"industrial_wall_sconce_bulb.001",
			"pbrMetallicRoughness":{
				"baseColorTexture":{
					"index":20
				},
				"metallicFactor":0,
				"metallicRoughnessTexture":{
					"index":21
				}
			}
		},
		{
			"doubleSided":true,
			"name":"industrial_wall_sconce.002",
			"normalTexture":{
				"index":22
			},
			"pbrMetallicRoughness":{
				"baseColorTexture":{
					"index":23
				},
				"metallicRoughnessTexture":{
					"index":24
				}
			}
		},
		{
			"doubleSided":true,
			"emissiveFactor":[
				1,
				0.5799999833106995,
				0.23999999463558197
			],
			"extensions":{
				"KHR_materials_emissive_strength":{
					"emissiveStrength":1.5
				}
			},
			"name":"industrial_wall_sconce_bulb.002",
			"pbrMetallicRoughness":{
				"baseColorTexture":{
					"index":25
				},
				"metallicFactor":0,
				"metallicRoughnessTexture":{
					"index":26
				}
			}
		},
		{
			"doubleSided":true,
			"name":"industrial_wall_sconce.003",
			"normalTexture":{
				"index":27
			},
			"pbrMetallicRoughness":{
				"baseColorTexture":{
					"index":28
				},
				"metallicRoughnessTexture":{
					"index":29
				}
			}
		},
		{
			"doubleSided":true,
			"emissiveFactor":[
				1,
				0.5799999833106995,
				0.23999999463558197
			],
			"extensions":{
				"KHR_materials_emissive_strength":{
					"emissiveStrength":1.5
				}
			},
			"name":"industrial_wall_sconce_bulb.003",
			"pbrMetallicRoughness":{
				"baseColorTexture":{
					"index":30
				},
				"metallicFactor":0,
				"metallicRoughnessTexture":{
					"index":31
				}
			}
		},
		{
			"doubleSided":true,
			"name":"industrial_wall_sconce.004",
			"normalTexture":{
				"index":32
			},
			"pbrMetallicRoughness":{
				"baseColorTexture":{
					"index":33
				},
				"metallicRoughnessTexture":{
					"index":34
				}
			}
		},
		{
			"doubleSided":true,
			"emissiveFactor":[
				1,
				0.5799999833106995,
				0.23999999463558197
			],
			"extensions":{
				"KHR_materials_emissive_strength":{
					"emissiveStrength":1.5
				}
			},
			"name":"industrial_wall_sconce_bulb.004",
			"pbrMetallicRoughness":{
				"baseColorTexture":{
					"index":35
				},
				"metallicFactor":0,
				"metallicRoughnessTexture":{
					"index":36
				}
			}
		},
		{
			"doubleSided":true,
			"name":"joy_black",
			"pbrMetallicRoughness":{
				"baseColorFactor":[
					0.07999999821186066,
					0.07999999821186066,
					0.09000000357627869,
					1
				],
				"metallicFactor":0,
				"roughnessFactor":0.5
			}
		},
		{
			"doubleSided":true,
			"name":"joy_red",
			"pbrMetallicRoughness":{
				"baseColorFactor":[
					0.8500000238418579,
					0.11999999731779099,
					0.10000000149011612,
					1
				],
				"metallicFactor":0,
				"roughnessFactor":0.5
			}
		},
		{
			"doubleSided":true,
			"name":"walnut",
			"normalTexture":{
				"index":37
			},
			"pbrMetallicRoughness":{
				"baseColorTexture":{
					"index":38
				},
				"metallicFactor":0.05000000074505806,
				"metallicRoughnessTexture":{
					"index":39
				}
			}
		},
		{
			"doubleSided":true,
			"name":"potted_plant_04",
			"normalTexture":{
				"index":40
			},
			"pbrMetallicRoughness":{
				"baseColorTexture":{
					"index":41
				},
				"metallicFactor":0,
				"metallicRoughnessTexture":{
					"index":42
				}
			}
		},
		{
			"doubleSided":true,
			"extensions":{
				"KHR_materials_specular":{
					"specularColorFactor":[
						1.5807470083236694,
						1.5807470083236694,
						1.5807470083236694
					]
				},
				"KHR_materials_ior":{
					"ior":1.4500000476837158
				}
			},
			"name":"rubber_duck_toy",
			"normalTexture":{
				"index":43
			},
			"pbrMetallicRoughness":{
				"baseColorTexture":{
					"index":44
				},
				"metallicRoughnessTexture":{
					"index":45
				}
			}
		},
		{
			"doubleSided":true,
			"name":"sofa_03",
			"normalTexture":{
				"index":46
			},
			"pbrMetallicRoughness":{
				"baseColorTexture":{
					"index":47
				},
				"metallicFactor":0,
				"metallicRoughnessTexture":{
					"index":48
				}
			}
		},
		{
			"alphaMode":"BLEND",
			"doubleSided":true,
			"name":"sofa_03_fringe",
			"normalTexture":{
				"index":49
			},
			"pbrMetallicRoughness":{
				"baseColorTexture":{
					"index":50
				},
				"metallicFactor":0,
				"metallicRoughnessTexture":{
					"index":51
				}
			}
		},
		{
			"doubleSided":true,
			"name":"VHS brushed fascia",
			"pbrMetallicRoughness":{
				"baseColorFactor":[
					0.20000000298023224,
					0.20999999344348907,
					0.2199999988079071,
					1
				],
				"metallicFactor":0.3799999952316284,
				"roughnessFactor":0.36000001430511475
			}
		},
		{
			"doubleSided":true,
			"name":"VHS deck charcoal",
			"pbrMetallicRoughness":{
				"baseColorFactor":[
					0.07500000298023224,
					0.08500000089406967,
					0.0949999988079071,
					1
				],
				"metallicFactor":0.3199999928474426,
				"roughnessFactor":0.47999998927116394
			}
		},
		{
			"doubleSided":true,
			"name":"VHS green counter",
			"pbrMetallicRoughness":{
				"baseColorFactor":[
					0.07999999821186066,
					0.14000000059604645,
					0.10000000149011612,
					1
				],
				"metallicFactor":0,
				"roughnessFactor":0.25
			}
		},
		{
			"doubleSided":true,
			"name":"VHS satin controls",
			"pbrMetallicRoughness":{
				"baseColorFactor":[
					0.41999998688697815,
					0.4399999976158142,
					0.4300000071525574,
					1
				],
				"metallicFactor":0.7799999713897705,
				"roughnessFactor":0.2800000011920929
			}
		},
		{
			"doubleSided":true,
			"name":"VHS record button",
			"pbrMetallicRoughness":{
				"baseColorFactor":[
					0.6399999856948853,
					0.054999999701976776,
					0.03500000014901161,
					1
				],
				"metallicFactor":0.11999999731779099,
				"roughnessFactor":0.30000001192092896
			}
		},
		{
			"doubleSided":true,
			"name":"wallpaper_back",
			"normalTexture":{
				"extensions":{
					"KHR_texture_transform":{
						"offset":[
							0,
							-3.545454502105713
						],
						"scale":[
							7.636363506317139,
							4.545454502105713
						]
					}
				},
				"index":52
			},
			"pbrMetallicRoughness":{
				"baseColorTexture":{
					"extensions":{
						"KHR_texture_transform":{
							"offset":[
								0,
								-3.545454502105713
							],
							"scale":[
								7.636363506317139,
								4.545454502105713
							]
						}
					},
					"index":53
				},
				"metallicRoughnessTexture":{
					"extensions":{
						"KHR_texture_transform":{
							"offset":[
								0,
								-3.545454502105713
							],
							"scale":[
								7.636363506317139,
								4.545454502105713
							]
						}
					},
					"index":54
				}
			}
		},
		{
			"doubleSided":true,
			"name":"wallpaper_side",
			"normalTexture":{
				"extensions":{
					"KHR_texture_transform":{
						"offset":[
							0,
							-3.545454502105713
						],
						"scale":[
							9.545454978942871,
							4.545454502105713
						]
					}
				},
				"index":55
			},
			"pbrMetallicRoughness":{
				"baseColorTexture":{
					"extensions":{
						"KHR_texture_transform":{
							"offset":[
								0,
								-3.545454502105713
							],
							"scale":[
								9.545454978942871,
								4.545454502105713
							]
						}
					},
					"index":56
				},
				"metallicRoughnessTexture":{
					"extensions":{
						"KHR_texture_transform":{
							"offset":[
								0,
								-3.545454502105713
							],
							"scale":[
								9.545454978942871,
								4.545454502105713
							]
						}
					},
					"index":57
				}
			}
		}
	],
	"meshes":[
		{
			"name":"spec_chum_room_static_baked",
			"primitives":[
				{
					"attributes":{
						"POSITION":0,
						"NORMAL":1,
						"TEXCOORD_0":2,
						"TEXCOORD_1":3
					},
					"indices":4,
					"material":0
				},
				{
					"attributes":{
						"POSITION":5,
						"NORMAL":6,
						"TEXCOORD_0":7,
						"TEXCOORD_1":8
					},
					"indices":4,
					"material":1
				},
				{
					"attributes":{
						"POSITION":9,
						"NORMAL":10,
						"TEXCOORD_0":11,
						"TEXCOORD_1":12
					},
					"indices":13,
					"material":2
				},
				{
					"attributes":{
						"POSITION":14,
						"NORMAL":15,
						"TEXCOORD_0":16,
						"TEXCOORD_1":17
					},
					"indices":18,
					"material":3
				},
				{
					"attributes":{
						"POSITION":19,
						"NORMAL":20,
						"TEXCOORD_0":21,
						"TEXCOORD_1":22
					},
					"indices":23,
					"material":4
				},
				{
					"attributes":{
						"POSITION":24,
						"NORMAL":25,
						"TEXCOORD_0":26,
						"TEXCOORD_1":27
					},
					"indices":28,
					"material":5
				},
				{
					"attributes":{
						"POSITION":29,
						"NORMAL":30,
						"TEXCOORD_0":31,
						"TEXCOORD_1":32
					},
					"indices":33,
					"material":6
				},
				{
					"attributes":{
						"POSITION":34,
						"NORMAL":35,
						"TEXCOORD_0":36,
						"TEXCOORD_1":37
					},
					"indices":38,
					"material":7
				},
				{
					"attributes":{
						"POSITION":39,
						"NORMAL":40,
						"TEXCOORD_0":41,
						"TEXCOORD_1":42
					},
					"indices":43,
					"material":8
				},
				{
					"attributes":{
						"POSITION":44,
						"NORMAL":45,
						"TEXCOORD_0":46,
						"TEXCOORD_1":47
					},
					"indices":48,
					"material":9
				},
				{
					"attributes":{
						"POSITION":49,
						"NORMAL":50,
						"TEXCOORD_0":51,
						"TEXCOORD_1":52
					},
					"indices":53,
					"material":10
				},
				{
					"attributes":{
						"POSITION":54,
						"NORMAL":55,
						"TEXCOORD_0":56,
						"TEXCOORD_1":57
					},
					"indices":58,
					"material":11
				},
				{
					"attributes":{
						"POSITION":59,
						"NORMAL":60,
						"TEXCOORD_0":61,
						"TEXCOORD_1":62
					},
					"indices":63,
					"material":12
				},
				{
					"attributes":{
						"POSITION":64,
						"NORMAL":65,
						"TEXCOORD_0":66,
						"TEXCOORD_1":67
					},
					"indices":68,
					"material":13
				},
				{
					"attributes":{
						"POSITION":69,
						"NORMAL":70,
						"TEXCOORD_0":71,
						"TEXCOORD_1":72
					},
					"indices":73,
					"material":14
				},
				{
					"attributes":{
						"POSITION":74,
						"NORMAL":75,
						"TEXCOORD_0":76,
						"TEXCOORD_1":77
					},
					"indices":78,
					"material":15
				},
				{
					"attributes":{
						"POSITION":79,
						"NORMAL":80,
						"TEXCOORD_0":81,
						"TEXCOORD_1":82
					},
					"indices":83,
					"material":16
				},
				{
					"attributes":{
						"POSITION":84,
						"NORMAL":85,
						"TEXCOORD_0":86,
						"TEXCOORD_1":87
					},
					"indices":88,
					"material":17
				},
				{
					"attributes":{
						"POSITION":89,
						"NORMAL":90,
						"TEXCOORD_0":91,
						"TEXCOORD_1":92
					},
					"indices":93,
					"material":18
				},
				{
					"attributes":{
						"POSITION":94,
						"NORMAL":95,
						"TEXCOORD_0":96,
						"TEXCOORD_1":97
					},
					"indices":98,
					"material":19
				},
				{
					"attributes":{
						"POSITION":99,
						"NORMAL":100,
						"TEXCOORD_0":101,
						"TEXCOORD_1":102
					},
					"indices":103,
					"material":20
				},
				{
					"attributes":{
						"POSITION":104,
						"NORMAL":105,
						"TEXCOORD_0":106,
						"TEXCOORD_1":107
					},
					"indices":13,
					"material":21
				},
				{
					"attributes":{
						"POSITION":108,
						"NORMAL":109,
						"TEXCOORD_0":110,
						"TEXCOORD_1":111
					},
					"indices":112,
					"material":22
				},
				{
					"attributes":{
						"POSITION":113,
						"NORMAL":114,
						"TEXCOORD_0":115,
						"TEXCOORD_1":116
					},
					"indices":83,
					"material":23
				},
				{
					"attributes":{
						"POSITION":117,
						"NORMAL":118,
						"TEXCOORD_0":119,
						"TEXCOORD_1":120
					},
					"indices":121,
					"material":24
				},
				{
					"attributes":{
						"POSITION":122,
						"NORMAL":123,
						"TEXCOORD_0":124,
						"TEXCOORD_1":125
					},
					"indices":126,
					"material":25
				},
				{
					"attributes":{
						"POSITION":127,
						"NORMAL":128,
						"TEXCOORD_0":129,
						"TEXCOORD_1":130
					},
					"indices":13,
					"material":26
				},
				{
					"attributes":{
						"POSITION":131,
						"NORMAL":132,
						"TEXCOORD_0":133,
						"TEXCOORD_1":134
					},
					"indices":13,
					"material":27
				}
			]
		}
	],
	"textures":[
		{
			"sampler":0,
			"source":0
		},
		{
			"sampler":0,
			"source":1
		},
		{
			"sampler":0,
			"source":2
		},
		{
			"sampler":0,
			"source":3
		},
		{
			"sampler":0,
			"source":4
		},
		{
			"sampler":0,
			"source":5
		},
		{
			"sampler":0,
			"source":6
		},
		{
			"sampler":0,
			"source":7
		},
		{
			"sampler":0,
			"source":8
		},
		{
			"sampler":0,
			"source":9
		},
		{
			"sampler":0,
			"source":10
		},
		{
			"sampler":0,
			"source":11
		},
		{
			"sampler":0,
			"source":12
		},
		{
			"sampler":0,
			"source":13
		},
		{
			"sampler":0,
			"source":14
		},
		{
			"sampler":0,
			"source":15
		},
		{
			"sampler":0,
			"source":14
		},
		{
			"sampler":0,
			"source":12
		},
		{
			"sampler":0,
			"source":13
		},
		{
			"sampler":0,
			"source":14
		},
		{
			"sampler":0,
			"source":15
		},
		{
			"sampler":0,
			"source":14
		},
		{
			"sampler":0,
			"source":12
		},
		{
			"sampler":0,
			"source":13
		},
		{
			"sampler":0,
			"source":14
		},
		{
			"sampler":0,
			"source":15
		},
		{
			"sampler":0,
			"source":14
		},
		{
			"sampler":0,
			"source":12
		},
		{
			"sampler":0,
			"source":13
		},
		{
			"sampler":0,
			"source":14
		},
		{
			"sampler":0,
			"source":15
		},
		{
			"sampler":0,
			"source":14
		},
		{
			"sampler":0,
			"source":12
		},
		{
			"sampler":0,
			"source":13
		},
		{
			"sampler":0,
			"source":14
		},
		{
			"sampler":0,
			"source":15
		},
		{
			"sampler":0,
			"source":14
		},
		{
			"sampler":0,
			"source":16
		},
		{
			"sampler":0,
			"source":17
		},
		{
			"sampler":0,
			"source":18
		},
		{
			"sampler":0,
			"source":19
		},
		{
			"sampler":0,
			"source":20
		},
		{
			"sampler":0,
			"source":21
		},
		{
			"sampler":0,
			"source":22
		},
		{
			"sampler":0,
			"source":23
		},
		{
			"sampler":0,
			"source":24
		},
		{
			"sampler":0,
			"source":25
		},
		{
			"sampler":0,
			"source":26
		},
		{
			"sampler":0,
			"source":27
		},
		{
			"sampler":0,
			"source":25
		},
		{
			"sampler":0,
			"source":28
		},
		{
			"sampler":0,
			"source":27
		},
		{
			"sampler":0,
			"source":29
		},
		{
			"sampler":0,
			"source":30
		},
		{
			"sampler":0,
			"source":31
		},
		{
			"sampler":0,
			"source":29
		},
		{
			"sampler":0,
			"source":30
		},
		{
			"sampler":0,
			"source":31
		}
	],
	"images":[
		{
			"mimeType":"image/jpeg",
			"name":"dirty_carpet_nor_gl_1k",
			"uri":"textures/dirty_carpet_nor_gl_1k.jpg"
		},
		{
			"mimeType":"image/jpeg",
			"name":"dirty_carpet_diff_1k",
			"uri":"textures/dirty_carpet_diff_1k.jpg"
		},
		{
			"mimeType":"image/jpeg",
			"name":"dirty_carpet_arm_1k",
			"uri":"textures/dirty_carpet_arm_1k.jpg"
		},
		{
			"mimeType":"image/jpeg",
			"name":"beige_wall_001_nor_gl_1k",
			"uri":"textures/beige_wall_001_nor_gl_1k.jpg"
		},
		{
			"mimeType":"image/jpeg",
			"name":"beige_wall_001_diff_1k",
			"uri":"textures/beige_wall_001_diff_1k.jpg"
		},
		{
			"mimeType":"image/jpeg",
			"name":"beige_wall_001_arm_1k",
			"uri":"textures/beige_wall_001_arm_1k.jpg"
		},
		{
			"mimeType":"image/jpeg",
			"name":"velour_velvet_nor_gl_1k",
			"uri":"textures/velour_velvet_nor_gl_1k.jpg"
		},
		{
			"mimeType":"image/jpeg",
			"name":"velour_velvet_diff_1k",
			"uri":"textures/velour_velvet_diff_1k.jpg"
		},
		{
			"mimeType":"image/jpeg",
			"name":"velour_velvet_arm_1k",
			"uri":"textures/velour_velvet_arm_1k.jpg"
		},
		{
			"mimeType":"image/jpeg",
			"name":"dirty_football_nor_gl_1k",
			"uri":"textures/dirty_football_nor_gl_1k.jpg"
		},
		{
			"mimeType":"image/jpeg",
			"name":"dirty_football_diff_1k",
			"uri":"textures/dirty_football_diff_1k.jpg"
		},
		{
			"mimeType":"image/jpeg",
			"name":"dirty_football_arm_1k",
			"uri":"textures/dirty_football_arm_1k.jpg"
		},
		{
			"mimeType":"image/jpeg",
			"name":"industrial_wall_sconce_nor_gl_1k",
			"uri":"textures/industrial_wall_sconce_nor_gl_1k.jpg"
		},
		{
			"mimeType":"image/jpeg",
			"name":"industrial_wall_sconce_diff_1k",
			"uri":"textures/industrial_wall_sconce_diff_1k.jpg"
		},
		{
			"mimeType":"image/jpeg",
			"name":"industrial_wall_sconce_arm_1k",
			"uri":"textures/industrial_wall_sconce_arm_1k.jpg"
		},
		{
			"mimeType":"image/jpeg",
			"name":"industrial_wall_sconce_bulb_diff_1k",
			"uri":"textures/industrial_wall_sconce_bulb_diff_1k.jpg"
		},
		{
			"mimeType":"image/jpeg",
			"name":"american_walnut_veneer_nor_gl_1k",
			"uri":"textures/american_walnut_veneer_nor_gl_1k.jpg"
		},
		{
			"mimeType":"image/jpeg",
			"name":"american_walnut_veneer_diff_1k",
			"uri":"textures/american_walnut_veneer_diff_1k.jpg"
		},
		{
			"mimeType":"image/png",
			"name":"american_walnut_veneer_arm_1k",
			"uri":"textures/american_walnut_veneer_arm_1k.png"
		},
		{
			"mimeType":"image/jpeg",
			"name":"potted_plant_04_nor_gl_1k",
			"uri":"textures/potted_plant_04_nor_gl_1k.jpg"
		},
		{
			"mimeType":"image/jpeg",
			"name":"potted_plant_04_diff_1k",
			"uri":"textures/potted_plant_04_diff_1k.jpg"
		},
		{
			"mimeType":"image/jpeg",
			"name":"potted_plant_04_arm_1k",
			"uri":"textures/potted_plant_04_arm_1k.jpg"
		},
		{
			"mimeType":"image/jpeg",
			"name":"rubber_duck_toy_nor_gl_1k",
			"uri":"textures/rubber_duck_toy_nor_gl_1k.jpg"
		},
		{
			"mimeType":"image/jpeg",
			"name":"rubber_duck_toy_diff_1k",
			"uri":"textures/rubber_duck_toy_diff_1k.jpg"
		},
		{
			"mimeType":"image/jpeg",
			"name":"rubber_duck_toy_arm_1k",
			"uri":"textures/rubber_duck_toy_arm_1k.jpg"
		},
		{
			"mimeType":"image/jpeg",
			"name":"sofa_03_nor_gl_1k",
			"uri":"textures/sofa_03_nor_gl_1k.jpg"
		},
		{
			"mimeType":"image/jpeg",
			"name":"sofa_03_diff_1k",
			"uri":"textures/sofa_03_diff_1k.jpg"
		},
		{
			"mimeType":"image/jpeg",
			"name":"sofa_03_rough_1k",
			"uri":"textures/sofa_03_rough_1k.jpg"
		},
		{
			"mimeType":"image/png",
			"name":"sofa_03_diff_1k",
			"uri":"textures/sofa_03_diff_1k.png"
		},
		{
			"mimeType":"image/jpeg",
			"name":"floral_jacquard_nor_gl_1k",
			"uri":"textures/floral_jacquard_nor_gl_1k.jpg"
		},
		{
			"mimeType":"image/jpeg",
			"name":"floral_jacquard_diff_1k",
			"uri":"textures/floral_jacquard_diff_1k.jpg"
		},
		{
			"mimeType":"image/jpeg",
			"name":"floral_jacquard_arm_1k",
			"uri":"textures/floral_jacquard_arm_1k.jpg"
		}
	],
	"accessors":[
		{
			"bufferView":0,
			"componentType":5126,
			"count":4,
			"max":[
				2.0999999046325684,
				0,
				2.625
			],
			"min":[
				-2.0999999046325684,
				0,
				-2.625
			],
			"type":"VEC3"
		},
		{
			"bufferView":1,
			"componentType":5126,
			"count":4,
			"type":"VEC3"
		},
		{
			"bufferView":2,
			"componentType":5126,
			"count":4,
			"type":"VEC2"
		},
		{
			"bufferView":3,
			"componentType":5126,
			"count":4,
			"type":"VEC2"
		},
		{
			"bufferView":4,
			"componentType":5123,
			"count":6,
			"type":"SCALAR"
		},
		{
			"bufferView":5,
			"componentType":5126,
			"count":4,
			"max":[
				2.0999999046325684,
				2.500000476837158,
				2.625
			],
			"min":[
				-2.0999999046325684,
				2.499999523162842,
				-2.625
			],
			"type":"VEC3"
		},
		{
			"bufferView":6,
			"componentType":5126,
			"count":4,
			"type":"VEC3"
		},
		{
			"bufferView":7,
			"componentType":5126,
			"count":4,
			"type":"VEC2"
		},
		{
			"bufferView":8,
			"componentType":5126,
			"count":4,
			"type":"VEC2"
		},
		{
			"bufferView":9,
			"componentType":5126,
			"count":48,
			"max":[
				1.850000023841858,
				2.1500000953674316,
				-2.5350000858306885
			],
			"min":[
				-1.850000023841858,
				0.1499999761581421,
				-2.5950000286102295
			],
			"type":"VEC3"
		},
		{
			"bufferView":10,
			"componentType":5126,
			"count":48,
			"type":"VEC3"
		},
		{
			"bufferView":11,
			"componentType":5126,
			"count":48,
			"type":"VEC2"
		},
		{
			"bufferView":12,
			"componentType":5126,
			"count":48,
			"type":"VEC2"
		},
		{
			"bufferView":13,
			"componentType":5123,
			"count":72,
			"type":"SCALAR"
		},
		{
			"bufferView":14,
			"componentType":5126,
			"count":35465,
			"max":[
				1.460176944732666,
				0.15358136594295502,
				0.15645229816436768
			],
			"min":[
				1.3049708604812622,
				-0.00045121461153030396,
				0.0025908946990966797
			],
			"type":"VEC3"
		},
		{
			"bufferView":15,
			"componentType":5126,
			"count":35465,
			"type":"VEC3"
		},
		{
			"bufferView":16,
			"componentType":5126,
			"count":35465,
			"type":"VEC2"
		},
		{
			"bufferView":17,
			"componentType":5126,
			"count":35465,
			"type":"VEC2"
		},
		{
			"bufferView":18,
			"componentType":5123,
			"count":59994,
			"type":"SCALAR"
		},
		{
			"bufferView":19,
			"componentType":5126,
			"count":6661,
			"max":[
				-1.2433209419250488,
				1.8722736835479736,
				-2.3364574909210205
			],
			"min":[
				-1.3936688899993896,
				1.530491828918457,
				-2.588033437728882
			],
			"type":"VEC3"
		},
		{
			"bufferView":20,
			"componentType":5126,
			"count":6661,
			"type":"VEC3"
		},
		{
			"bufferView":21,
			"componentType":5126,
			"count":6661,
			"type":"VEC2"
		},
		{
			"bufferView":22,
			"componentType":5126,
			"count":6661,
			"type":"VEC2"
		},
		{
			"bufferView":23,
			"componentType":5123,
			"count":21390,
			"type":"SCALAR"
		},
		{
			"bufferView":24,
			"componentType":5126,
			"count":2443,
			"max":[
				-1.2897143363952637,
				1.707155466079712,
				-2.3728246688842773
			],
			"min":[
				-1.3511558771133423,
				1.6069042682647705,
				-2.4342660903930664
			],
			"type":"VEC3"
		},
		{
			"bufferView":25,
			"componentType":5126,
			"count":2443,
			"type":"VEC3"
		},
		{
			"bufferView":26,
			"componentType":5126,
			"count":2443,
			"type":"VEC2"
		},
		{
			"bufferView":27,
			"componentType":5126,
			"count":2443,
			"type":"VEC2"
		},
		{
			"bufferView":28,
			"componentType":5123,
			"count":8088,
			"type":"SCALAR"
		},
		{
			"bufferView":29,
			"componentType":5126,
			"count":6679,
			"max":[
				0.07667908072471619,
				2.172273635864258,
				-2.3364574909210205
			],
			"min":[
				-0.07366891950368881,
				1.8304917812347412,
				-2.588033437728882
			],
			"type":"VEC3"
		},
		{
			"bufferView":30,
			"componentType":5126,
			"count":6679,
			"type":"VEC3"
		},
		{
			"bufferView":31,
			"componentType":5126,
			"count":6679,
			"type":"VEC2"
		},
		{
			"bufferView":32,
			"componentType":5126,
			"count":6679,
			"type":"VEC2"
		},
		{
			"bufferView":33,
			"componentType":5123,
			"count":21390,
			"type":"SCALAR"
		},
		{
			"bufferView":34,
			"componentType":5126,
			"count":2443,
			"max":[
				0.030285652726888657,
				2.007155418395996,
				-2.3728246688842773
			],
			"min":[
				-0.03115585818886757,
				1.9069042205810547,
				-2.4342660903930664
			],
			"type":"VEC3"
		},
		{
			"bufferView":35,
			"componentType":5126,
			"count":2443,
			"type":"VEC3"
		},
		{
			"bufferView":36,
			"componentType":5126,
			"count":2443,
			"type":"VEC2"
		},
		{
			"bufferView":37,
			"componentType":5126,
			"count":2443,
			"type":"VEC2"
		},
		{
			"bufferView":38,
			"componentType":5123,
			"count":8088,
			"type":"SCALAR"
		},
		{
			"bufferView":39,
			"componentType":5126,
			"count":6656,
			"max":[
				1.396679162979126,
				1.8722736835479736,
				-2.3364574909210205
			],
			"min":[
				1.2463312149047852,
				1.530491828918457,
				-2.588033437728882
			],
			"type":"VEC3"
		},
		{
			"bufferView":40,
			"componentType":5126,
			"count":6656,
			"type":"VEC3"
		},
		{
			"bufferView":41,
			"componentType":5126,
			"count":6656,
			"type":"VEC2"
		},
		{
			"bufferView":42,
			"componentType":5126,
			"count":6656,
			"type":"VEC2"
		},
		{
			"bufferView":43,
			"componentType":5123,
			"count":21390,
			"type":"SCALAR"
		},
		{
			"bufferView":44,
			"componentType":5126,
			"count":2443,
			"max":[
				1.3502857685089111,
				1.707155466079712,
				-2.3728246688842773
			],
			"min":[
				1.2888442277908325,
				1.6069042682647705,
				-2.4342660903930664
			],
			"type":"VEC3"
		},
		{
			"bufferView":45,
			"componentType":5126,
			"count":2443,
			"type":"VEC3"
		},
		{
			"bufferView":46,
			"componentType":5126,
			"count":2443,
			"type":"VEC2"
		},
		{
			"bufferView":47,
			"componentType":5126,
			"count":2443,
			"type":"VEC2"
		},
		{
			"bufferView":48,
			"componentType":5123,
			"count":8088,
			"type":"SCALAR"
		},
		{
			"bufferView":49,
			"componentType":5126,
			"count":6673,
			"max":[
				-1.8114573955535889,
				1.7722737789154053,
				0.6236689686775208
			],
			"min":[
				-2.06303334236145,
				1.4304919242858887,
				0.47332093119621277
			],
			"type":"VEC3"
		},
		{
			"bufferView":50,
			"componentType":5126,
			"count":6673,
			"type":"VEC3"
		},
		{
			"bufferView":51,
			"componentType":5126,
			"count":6673,
			"type":"VEC2"
		},
		{
			"bufferView":52,
			"componentType":5126,
			"count":6673,
			"type":"VEC2"
		},
		{
			"bufferView":53,
			"componentType":5123,
			"count":21390,
			"type":"SCALAR"
		},
		{
			"bufferView":54,
			"componentType":5126,
			"count":2467,
			"max":[
				-1.8478244543075562,
				1.6071555614471436,
				0.5811558961868286
			],
			"min":[
				-1.9092659950256348,
				1.5069043636322021,
				0.51971435546875
			],
			"type":"VEC3"
		},
		{
			"bufferView":55,
			"componentType":5126,
			"count":2467,
			"type":"VEC3"
		},
		{
			"bufferView":56,
			"componentType":5126,
			"count":2467,
			"type":"VEC2"
		},
		{
			"bufferView":57,
			"componentType":5126,
			"count":2467,
			"type":"VEC2"
		},
		{
			"bufferView":58,
			"componentType":5123,
			"count":8088,
			"type":"SCALAR"
		},
		{
			"bufferView":59,
			"componentType":5126,
			"count":6666,
			"max":[
				2.06303334236145,
				1.7722737789154053,
				0.6266791224479675
			],
			"min":[
				1.8114573955535889,
				1.4304919242858887,
				0.47633105516433716
			],
			"type":"VEC3"
		},
		{
			"bufferView":60,
			"componentType":5126,
			"count":6666,
			"type":"VEC3"
		},
		{
			"bufferView":61,
			"componentType":5126,
			"count":6666,
			"type":"VEC2"
		},
		{
			"bufferView":62,
			"componentType":5126,
			"count":6666,
			"type":"VEC2"
		},
		{
			"bufferView":63,
			"componentType":5123,
			"count":21390,
			"type":"SCALAR"
		},
		{
			"bufferView":64,
			"componentType":5126,
			"count":2453,
			"max":[
				1.9092659950256348,
				1.6071555614471436,
				0.5802856683731079
			],
			"min":[
				1.8478244543075562,
				1.5069043636322021,
				0.5188441872596741
			],
			"type":"VEC3"
		},
		{
			"bufferView":65,
			"componentType":5126,
			"count":2453,
			"type":"VEC3"
		},
		{
			"bufferView":66,
			"componentType":5126,
			"count":2453,
			"type":"VEC2"
		},
		{
			"bufferView":67,
			"componentType":5126,
			"count":2453,
			"type":"VEC2"
		},
		{
			"bufferView":68,
			"componentType":5123,
			"count":8088,
			"type":"SCALAR"
		},
		{
			"bufferView":69,
			"componentType":5126,
			"count":952,
			"max":[
				0.6205248832702637,
				0.13300000131130219,
				-0.009475119411945343
			],
			"min":[
				0.47947514057159424,
				0,
				-0.15052488446235657
			],
			"type":"VEC3"
		},
		{
			"bufferView":70,
			"componentType":5126,
			"count":952,
			"type":"VEC3"
		},
		{
			"bufferView":71,
			"componentType":5126,
			"count":952,
			"type":"VEC2"
		},
		{
			"bufferView":72,
			"componentType":5126,
			"count":952,
			"type":"VEC2"
		},
		{
			"bufferView":73,
			"componentType":5123,
			"count":1464,
			"type":"SCALAR"
		},
		{
			"bufferView":74,
			"componentType":5126,
			"count":384,
			"max":[
				0.6012623906135559,
				0.0429999977350235,
				-0.026351694017648697
			],
			"min":[
				0.5206830501556396,
				0.032999999821186066,
				-0.07352845370769501
			],
			"type":"VEC3"
		},
		{
			"bufferView":75,
			"componentType":5126,
			"count":384,
			"type":"VEC3"
		},
		{
			"bufferView":76,
			"componentType":5126,
			"count":384,
			"type":"VEC2"
		},
		{
			"bufferView":77,
			"componentType":5126,
			"count":384,
			"type":"VEC2"
		},
		{
			"bufferView":78,
			"componentType":5123,
			"count":744,
			"type":"SCALAR"
		},
		{
			"bufferView":79,
			"componentType":5126,
			"count":192,
			"max":[
				2.0399999618530273,
				0.5,
				-1.2300000190734863
			],
			"min":[
				-2.0799999237060547,
				0,
				-2.6000001430511475
			],
			"type":"VEC3"
		},
		{
			"bufferView":80,
			"componentType":5126,
			"count":192,
			"type":"VEC3"
		},
		{
			"bufferView":81,
			"componentType":5126,
			"count":192,
			"type":"VEC2"
		},
		{
			"bufferView":82,
			"componentType":5126,
			"count":192,
			"type":"VEC2"
		},
		{
			"bufferView":83,
			"componentType":5123,
			"count":288,
			"type":"SCALAR"
		},
		{
			"bufferView":84,
			"componentType":5126,
			"count":9293,
			"max":[
				-1.7386482954025269,
				0.7276580929756165,
				-1.364313006401062
			],
			"min":[
				-1.8813515901565552,
				0.5003190636634827,
				-1.52135169506073
			],
			"type":"VEC3"
		},
		{
			"bufferView":85,
			"componentType":5126,
			"count":9293,
			"type":"VEC3"
		},
		{
			"bufferView":86,
			"componentType":5126,
			"count":9293,
			"type":"VEC2"
		},
		{
			"bufferView":87,
			"componentType":5126,
			"count":9293,
			"type":"VEC2"
		},
		{
			"bufferView":88,
			"componentType":5123,
			"count":26787,
			"type":"SCALAR"
		},
		{
			"bufferView":89,
			"componentType":5126,
			"count":3124,
			"max":[
				1.2202035188674927,
				0.15701308846473694,
				0.1621142327785492
			],
			"min":[
				1.0994834899902344,
				-2.4496765036019497e-05,
				0.002392813563346863
			],
			"type":"VEC3"
		},
		{
			"bufferView":90,
			"componentType":5126,
			"count":3124,
			"type":"VEC3"
		},
		{
			"bufferView":91,
			"componentType":5126,
			"count":3124,
			"type":"VEC2"
		},
		{
			"bufferView":92,
			"componentType":5126,
			"count":3124,
			"type":"VEC2"
		},
		{
			"bufferView":93,
			"componentType":5123,
			"count":12864,
			"type":"SCALAR"
		},
		{
			"bufferView":94,
			"componentType":5126,
			"count":6203,
			"max":[
				1.0924710035324097,
				0.8951139450073242,
				0.871106743812561
			],
			"min":[
				-1.0924710035324097,
				0.0005027157021686435,
				0.1310393512248993
			],
			"type":"VEC3"
		},
		{
			"bufferView":95,
			"componentType":5126,
			"count":6203,
			"type":"VEC3"
		},
		{
			"bufferView":96,
			"componentType":5126,
			"count":6203,
			"type":"VEC2"
		},
		{
			"bufferView":97,
			"componentType":5126,
			"count":6203,
			"type":"VEC2"
		},
		{
			"bufferView":98,
			"componentType":5123,
			"count":20979,
			"type":"SCALAR"
		},
		{
			"bufferView":99,
			"componentType":5126,
			"count":1476,
			"max":[
				0.888760507106781,
				0.8211696743965149,
				0.7780054807662964
			],
			"min":[
				-0.8887603878974915,
				0.3997597098350525,
				0.3353741466999054
			],
			"type":"VEC3"
		},
		{
			"bufferView":100,
			"componentType":5126,
			"count":1476,
			"type":"VEC3"
		},
		{
			"bufferView":101,
			"componentType":5126,
			"count":1476,
			"type":"VEC2"
		},
		{
			"bufferView":102,
			"componentType":5126,
			"count":1476,
			"type":"VEC2"
		},
		{
			"bufferView":103,
			"componentType":5123,
			"count":3030,
			"type":"SCALAR"
		},
		{
			"bufferView":104,
			"componentType":5126,
			"count":48,
			"max":[
				0.9150000214576721,
				0.6554999947547913,
				-1.881500005722046
			],
			"min":[
				0.4050000309944153,
				0.5955000519752502,
				-1.9030001163482666
			],
			"type":"VEC3"
		},
		{
			"bufferView":105,
			"componentType":5126,
			"count":48,
			"type":"VEC3"
		},
		{
			"bufferView":106,
			"componentType":5126,
			"count":48,
			"type":"VEC2"
		},
		{
			"bufferView":107,
			"componentType":5126,
			"count":48,
			"type":"VEC2"
		},
		{
			"bufferView":108,
			"componentType":5126,
			"count":96,
			"max":[
				0.9300000667572021,
				0.6730000376701355,
				-1.8799999952316284
			],
			"min":[
				0.39000001549720764,
				0.578000009059906,
				-2.255000114440918
			],
			"type":"VEC3"
		},
		{
			"bufferView":109,
			"componentType":5126,
			"count":96,
			"type":"VEC3"
		},
		{
			"bufferView":110,
			"componentType":5126,
			"count":96,
			"type":"VEC2"
		},
		{
			"bufferView":111,
			"componentType":5126,
			"count":96,
			"type":"VEC2"
		},
		{
			"bufferView":112,
			"componentType":5123,
			"count":144,
			"type":"SCALAR"
		},
		{
			"bufferView":113,
			"componentType":5126,
			"count":192,
			"max":[
				0.8510000705718994,
				0.643000066280365,
				-1.880500078201294
			],
			"min":[
				0.7790000438690186,
				0.6240000128746033,
				-1.8845000267028809
			],
			"type":"VEC3"
		},
		{
			"bufferView":114,
			"componentType":5126,
			"count":192,
			"type":"VEC3"
		},
		{
			"bufferView":115,
			"componentType":5126,
			"count":192,
			"type":"VEC2"
		},
		{
			"bufferView":116,
			"componentType":5126,
			"count":192,
			"type":"VEC2"
		},
		{
			"bufferView":117,
			"componentType":5126,
			"count":480,
			"max":[
				0.8939999938011169,
				0.6345000267028809,
				-1.8825000524520874
			],
			"min":[
				0.41600000858306885,
				0.6165000200271606,
				-1.8915001153945923
			],
			"type":"VEC3"
		},
		{
			"bufferView":118,
			"componentType":5126,
			"count":480,
			"type":"VEC3"
		},
		{
			"bufferView":119,
			"componentType":5126,
			"count":480,
			"type":"VEC2"
		},
		{
			"bufferView":120,
			"componentType":5126,
			"count":480,
			"type":"VEC2"
		},
		{
			"bufferView":121,
			"componentType":5123,
			"count":912,
			"type":"SCALAR"
		},
		{
			"bufferView":122,
			"componentType":5126,
			"count":120,
			"max":[
				0.9269999861717224,
				0.6345000267028809,
				-1.8825000524520874
			],
			"min":[
				0.9089999794960022,
				0.6165000200271606,
				-1.8915001153945923
			],
			"type":"VEC3"
		},
		{
			"bufferView":123,
			"componentType":5126,
			"count":120,
			"type":"VEC3"
		},
		{
			"bufferView":124,
			"componentType":5126,
			"count":120,
			"type":"VEC2"
		},
		{
			"bufferView":125,
			"componentType":5126,
			"count":120,
			"type":"VEC2"
		},
		{
			"bufferView":126,
			"componentType":5123,
			"count":228,
			"type":"SCALAR"
		},
		{
			"bufferView":127,
			"componentType":5126,
			"count":48,
			"max":[
				2.0999999046325684,
				2.5,
				2.6549999713897705
			],
			"min":[
				-2.0999999046325684,
				0,
				-2.6549999713897705
			],
			"type":"VEC3"
		},
		{
			"bufferView":128,
			"componentType":5126,
			"count":48,
			"type":"VEC3"
		},
		{
			"bufferView":129,
			"componentType":5126,
			"count":48,
			"type":"VEC2"
		},
		{
			"bufferView":130,
			"componentType":5126,
			"count":48,
			"type":"VEC2"
		},
		{
			"bufferView":131,
			"componentType":5126,
			"count":48,
			"max":[
				2.129999876022339,
				2.5,
				2.625
			],
			"min":[
				-2.129999876022339,
				0,
				-2.625
			],
			"type":"VEC3"
		},
		{
			"bufferView":132,
			"componentType":5126,
			"count":48,
			"type":"VEC3"
		},
		{
			"bufferView":133,
			"componentType":5126,
			"count":48,
			"type":"VEC2"
		},
		{
			"bufferView":134,
			"componentType":5126,
			"count":48,
			"type":"VEC2"
		}
	],
	"bufferViews":[
		{
			"buffer":0,
			"byteLength":48,
			"byteOffset":0,
			"target":34962
		},
		{
			"buffer":0,
			"byteLength":48,
			"byteOffset":48,
			"target":34962
		},
		{
			"buffer":0,
			"byteLength":32,
			"byteOffset":96,
			"target":34962
		},
		{
			"buffer":0,
			"byteLength":32,
			"byteOffset":128,
			"target":34962
		},
		{
			"buffer":0,
			"byteLength":12,
			"byteOffset":160,
			"target":34963
		},
		{
			"buffer":0,
			"byteLength":48,
			"byteOffset":172,
			"target":34962
		},
		{
			"buffer":0,
			"byteLength":48,
			"byteOffset":220,
			"target":34962
		},
		{
			"buffer":0,
			"byteLength":32,
			"byteOffset":268,
			"target":34962
		},
		{
			"buffer":0,
			"byteLength":32,
			"byteOffset":300,
			"target":34962
		},
		{
			"buffer":0,
			"byteLength":576,
			"byteOffset":332,
			"target":34962
		},
		{
			"buffer":0,
			"byteLength":576,
			"byteOffset":908,
			"target":34962
		},
		{
			"buffer":0,
			"byteLength":384,
			"byteOffset":1484,
			"target":34962
		},
		{
			"buffer":0,
			"byteLength":384,
			"byteOffset":1868,
			"target":34962
		},
		{
			"buffer":0,
			"byteLength":144,
			"byteOffset":2252,
			"target":34963
		},
		{
			"buffer":0,
			"byteLength":425580,
			"byteOffset":2396,
			"target":34962
		},
		{
			"buffer":0,
			"byteLength":425580,
			"byteOffset":427976,
			"target":34962
		},
		{
			"buffer":0,
			"byteLength":283720,
			"byteOffset":853556,
			"target":34962
		},
		{
			"buffer":0,
			"byteLength":283720,
			"byteOffset":1137276,
			"target":34962
		},
		{
			"buffer":0,
			"byteLength":119988,
			"byteOffset":1420996,
			"target":34963
		},
		{
			"buffer":0,
			"byteLength":79932,
			"byteOffset":1540984,
			"target":34962
		},
		{
			"buffer":0,
			"byteLength":79932,
			"byteOffset":1620916,
			"target":34962
		},
		{
			"buffer":0,
			"byteLength":53288,
			"byteOffset":1700848,
			"target":34962
		},
		{
			"buffer":0,
			"byteLength":53288,
			"byteOffset":1754136,
			"target":34962
		},
		{
			"buffer":0,
			"byteLength":42780,
			"byteOffset":1807424,
			"target":34963
		},
		{
			"buffer":0,
			"byteLength":29316,
			"byteOffset":1850204,
			"target":34962
		},
		{
			"buffer":0,
			"byteLength":29316,
			"byteOffset":1879520,
			"target":34962
		},
		{
			"buffer":0,
			"byteLength":19544,
			"byteOffset":1908836,
			"target":34962
		},
		{
			"buffer":0,
			"byteLength":19544,
			"byteOffset":1928380,
			"target":34962
		},
		{
			"buffer":0,
			"byteLength":16176,
			"byteOffset":1947924,
			"target":34963
		},
		{
			"buffer":0,
			"byteLength":80148,
			"byteOffset":1964100,
			"target":34962
		},
		{
			"buffer":0,
			"byteLength":80148,
			"byteOffset":2044248,
			"target":34962
		},
		{
			"buffer":0,
			"byteLength":53432,
			"byteOffset":2124396,
			"target":34962
		},
		{
			"buffer":0,
			"byteLength":53432,
			"byteOffset":2177828,
			"target":34962
		},
		{
			"buffer":0,
			"byteLength":42780,
			"byteOffset":2231260,
			"target":34963
		},
		{
			"buffer":0,
			"byteLength":29316,
			"byteOffset":2274040,
			"target":34962
		},
		{
			"buffer":0,
			"byteLength":29316,
			"byteOffset":2303356,
			"target":34962
		},
		{
			"buffer":0,
			"byteLength":19544,
			"byteOffset":2332672,
			"target":34962
		},
		{
			"buffer":0,
			"byteLength":19544,
			"byteOffset":2352216,
			"target":34962
		},
		{
			"buffer":0,
			"byteLength":16176,
			"byteOffset":2371760,
			"target":34963
		},
		{
			"buffer":0,
			"byteLength":79872,
			"byteOffset":2387936,
			"target":34962
		},
		{
			"buffer":0,
			"byteLength":79872,
			"byteOffset":2467808,
			"target":34962
		},
		{
			"buffer":0,
			"byteLength":53248,
			"byteOffset":2547680,
			"target":34962
		},
		{
			"buffer":0,
			"byteLength":53248,
			"byteOffset":2600928,
			"target":34962
		},
		{
			"buffer":0,
			"byteLength":42780,
			"byteOffset":2654176,
			"target":34963
		},
		{
			"buffer":0,
			"byteLength":29316,
			"byteOffset":2696956,
			"target":34962
		},
		{
			"buffer":0,
			"byteLength":29316,
			"byteOffset":2726272,
			"target":34962
		},
		{
			"buffer":0,
			"byteLength":19544,
			"byteOffset":2755588,
			"target":34962
		},
		{
			"buffer":0,
			"byteLength":19544,
			"byteOffset":2775132,
			"target":34962
		},
		{
			"buffer":0,
			"byteLength":16176,
			"byteOffset":2794676,
			"target":34963
		},
		{
			"buffer":0,
			"byteLength":80076,
			"byteOffset":2810852,
			"target":34962
		},
		{
			"buffer":0,
			"byteLength":80076,
			"byteOffset":2890928,
			"target":34962
		},
		{
			"buffer":0,
			"byteLength":53384,
			"byteOffset":2971004,
			"target":34962
		},
		{
			"buffer":0,
			"byteLength":53384,
			"byteOffset":3024388,
			"target":34962
		},
		{
			"buffer":0,
			"byteLength":42780,
			"byteOffset":3077772,
			"target":34963
		},
		{
			"buffer":0,
			"byteLength":29604,
			"byteOffset":3120552,
			"target":34962
		},
		{
			"buffer":0,
			"byteLength":29604,
			"byteOffset":3150156,
			"target":34962
		},
		{
			"buffer":0,
			"byteLength":19736,
			"byteOffset":3179760,
			"target":34962
		},
		{
			"buffer":0,
			"byteLength":19736,
			"byteOffset":3199496,
			"target":34962
		},
		{
			"buffer":0,
			"byteLength":16176,
			"byteOffset":3219232,
			"target":34963
		},
		{
			"buffer":0,
			"byteLength":79992,
			"byteOffset":3235408,
			"target":34962
		},
		{
			"buffer":0,
			"byteLength":79992,
			"byteOffset":3315400,
			"target":34962
		},
		{
			"buffer":0,
			"byteLength":53328,
			"byteOffset":3395392,
			"target":34962
		},
		{
			"buffer":0,
			"byteLength":53328,
			"byteOffset":3448720,
			"target":34962
		},
		{
			"buffer":0,
			"byteLength":42780,
			"byteOffset":3502048,
			"target":34963
		},
		{
			"buffer":0,
			"byteLength":29436,
			"byteOffset":3544828,
			"target":34962
		},
		{
			"buffer":0,
			"byteLength":29436,
			"byteOffset":3574264,
			"target":34962
		},
		{
			"buffer":0,
			"byteLength":19624,
			"byteOffset":3603700,
			"target":34962
		},
		{
			"buffer":0,
			"byteLength":19624,
			"byteOffset":3623324,
			"target":34962
		},
		{
			"buffer":0,
			"byteLength":16176,
			"byteOffset":3642948,
			"target":34963
		},
		{
			"buffer":0,
			"byteLength":11424,
			"byteOffset":3659124,
			"target":34962
		},
		{
			"buffer":0,
			"byteLength":11424,
			"byteOffset":3670548,
			"target":34962
		},
		{
			"buffer":0,
			"byteLength":7616,
			"byteOffset":3681972,
			"target":34962
		},
		{
			"buffer":0,
			"byteLength":7616,
			"byteOffset":3689588,
			"target":34962
		},
		{
			"buffer":0,
			"byteLength":2928,
			"byteOffset":3697204,
			"target":34963
		},
		{
			"buffer":0,
			"byteLength":4608,
			"byteOffset":3700132,
			"target":34962
		},
		{
			"buffer":0,
			"byteLength":4608,
			"byteOffset":3704740,
			"target":34962
		},
		{
			"buffer":0,
			"byteLength":3072,
			"byteOffset":3709348,
			"target":34962
		},
		{
			"buffer":0,
			"byteLength":3072,
			"byteOffset":3712420,
			"target":34962
		},
		{
			"buffer":0,
			"byteLength":1488,
			"byteOffset":3715492,
			"target":34963
		},
		{
			"buffer":0,
			"byteLength":2304,
			"byteOffset":3716980,
			"target":34962
		},
		{
			"buffer":0,
			"byteLength":2304,
			"byteOffset":3719284,
			"target":34962
		},
		{
			"buffer":0,
			"byteLength":1536,
			"byteOffset":3721588,
			"target":34962
		},
		{
			"buffer":0,
			"byteLength":1536,
			"byteOffset":3723124,
			"target":34962
		},
		{
			"buffer":0,
			"byteLength":576,
			"byteOffset":3724660,
			"target":34963
		},
		{
			"buffer":0,
			"byteLength":111516,
			"byteOffset":3725236,
			"target":34962
		},
		{
			"buffer":0,
			"byteLength":111516,
			"byteOffset":3836752,
			"target":34962
		},
		{
			"buffer":0,
			"byteLength":74344,
			"byteOffset":3948268,
			"target":34962
		},
		{
			"buffer":0,
			"byteLength":74344,
			"byteOffset":4022612,
			"target":34962
		},
		{
			"buffer":0,
			"byteLength":53574,
			"byteOffset":4096956,
			"target":34963
		},
		{
			"buffer":0,
			"byteLength":37488,
			"byteOffset":4150532,
			"target":34962
		},
		{
			"buffer":0,
			"byteLength":37488,
			"byteOffset":4188020,
			"target":34962
		},
		{
			"buffer":0,
			"byteLength":24992,
			"byteOffset":4225508,
			"target":34962
		},
		{
			"buffer":0,
			"byteLength":24992,
			"byteOffset":4250500,
			"target":34962
		},
		{
			"buffer":0,
			"byteLength":25728,
			"byteOffset":4275492,
			"target":34963
		},
		{
			"buffer":0,
			"byteLength":74436,
			"byteOffset":4301220,
			"target":34962
		},
		{
			"buffer":0,
			"byteLength":74436,
			"byteOffset":4375656,
			"target":34962
		},
		{
			"buffer":0,
			"byteLength":49624,
			"byteOffset":4450092,
			"target":34962
		},
		{
			"buffer":0,
			"byteLength":49624,
			"byteOffset":4499716,
			"target":34962
		},
		{
			"buffer":0,
			"byteLength":41958,
			"byteOffset":4549340,
			"target":34963
		},
		{
			"buffer":0,
			"byteLength":17712,
			"byteOffset":4591300,
			"target":34962
		},
		{
			"buffer":0,
			"byteLength":17712,
			"byteOffset":4609012,
			"target":34962
		},
		{
			"buffer":0,
			"byteLength":11808,
			"byteOffset":4626724,
			"target":34962
		},
		{
			"buffer":0,
			"byteLength":11808,
			"byteOffset":4638532,
			"target":34962
		},
		{
			"buffer":0,
			"byteLength":6060,
			"byteOffset":4650340,
			"target":34963
		},
		{
			"buffer":0,
			"byteLength":576,
			"byteOffset":4656400,
			"target":34962
		},
		{
			"buffer":0,
			"byteLength":576,
			"byteOffset":4656976,
			"target":34962
		},
		{
			"buffer":0,
			"byteLength":384,
			"byteOffset":4657552,
			"target":34962
		},
		{
			"buffer":0,
			"byteLength":384,
			"byteOffset":4657936,
			"target":34962
		},
		{
			"buffer":0,
			"byteLength":1152,
			"byteOffset":4658320,
			"target":34962
		},
		{
			"buffer":0,
			"byteLength":1152,
			"byteOffset":4659472,
			"target":34962
		},
		{
			"buffer":0,
			"byteLength":768,
			"byteOffset":4660624,
			"target":34962
		},
		{
			"buffer":0,
			"byteLength":768,
			"byteOffset":4661392,
			"target":34962
		},
		{
			"buffer":0,
			"byteLength":288,
			"byteOffset":4662160,
			"target":34963
		},
		{
			"buffer":0,
			"byteLength":2304,
			"byteOffset":4662448,
			"target":34962
		},
		{
			"buffer":0,
			"byteLength":2304,
			"byteOffset":4664752,
			"target":34962
		},
		{
			"buffer":0,
			"byteLength":1536,
			"byteOffset":4667056,
			"target":34962
		},
		{
			"buffer":0,
			"byteLength":1536,
			"byteOffset":4668592,
			"target":34962
		},
		{
			"buffer":0,
			"byteLength":5760,
			"byteOffset":4670128,
			"target":34962
		},
		{
			"buffer":0,
			"byteLength":5760,
			"byteOffset":4675888,
			"target":34962
		},
		{
			"buffer":0,
			"byteLength":3840,
			"byteOffset":4681648,
			"target":34962
		},
		{
			"buffer":0,
			"byteLength":3840,
			"byteOffset":4685488,
			"target":34962
		},
		{
			"buffer":0,
			"byteLength":1824,
			"byteOffset":4689328,
			"target":34963
		},
		{
			"buffer":0,
			"byteLength":1440,
			"byteOffset":4691152,
			"target":34962
		},
		{
			"buffer":0,
			"byteLength":1440,
			"byteOffset":4692592,
			"target":34962
		},
		{
			"buffer":0,
			"byteLength":960,
			"byteOffset":4694032,
			"target":34962
		},
		{
			"buffer":0,
			"byteLength":960,
			"byteOffset":4694992,
			"target":34962
		},
		{
			"buffer":0,
			"byteLength":456,
			"byteOffset":4695952,
			"target":34963
		},
		{
			"buffer":0,
			"byteLength":576,
			"byteOffset":4696408,
			"target":34962
		},
		{
			"buffer":0,
			"byteLength":576,
			"byteOffset":4696984,
			"target":34962
		},
		{
			"buffer":0,
			"byteLength":384,
			"byteOffset":4697560,
			"target":34962
		},
		{
			"buffer":0,
			"byteLength":384,
			"byteOffset":4697944,
			"target":34962
		},
		{
			"buffer":0,
			"byteLength":576,
			"byteOffset":4698328,
			"target":34962
		},
		{
			"buffer":0,
			"byteLength":576,
			"byteOffset":4698904,
			"target":34962
		},
		{
			"buffer":0,
			"byteLength":384,
			"byteOffset":4699480,
			"target":34962
		},
		{
			"buffer":0,
			"byteLength":384,
			"byteOffset":4699864,
			"target":34962
		}
	],
	"samplers":[
		{
			"magFilter":9729,
			"minFilter":9987
		}
	],
	"buffers":[
		{
			"byteLength":4700248,
			"uri":"room_static.bin"
		}
	]
}
